# xmcd
#
# Track frame offsets: 
#        150
#        12042
#        31096
#        52464
#        102731
#        117577
#        137382
#        149941
#        187196
#
# Disc length: 2680 seconds
#
# Revision: 0
# Processed by: cddbd v1.5.2PL0 Copyright (c) Steve Scherf et al.
# Submitted via: ExactAudioCopy v1.1
#
DISCID=8d0a7609
DTITLE=Kenny Loggins - sittin in
DYEAR=1971
DGENRE=Country
TTITLE0=Nobody But You
TTITLE1=Danny's Song
TTITLE2=Vahevala
TTITLE3=Trilogy Lovin' Me, To Make a Woman Feel Wanted, Peace of Mind
TTITLE4=Back to Georgia
TTITLE5=House at Pooh Corner
TTITLE6=Listen to a Country Song
TTITLE7=Same Old Wine
TTITLE8=Rock'n Roll Mood
EXTD=
EXTT0=
EXTT1=
EXTT2=
EXTT3=
EXTT4=
EXTT5=
EXTT6=
EXTT7=
EXTT8=
PLAYORDER=
